<svg width="100" height="100" viewBox="0 0 100 100" fill="none" xmlns="http://www.w3.org/2000/svg">
<g clip-path="url(#clip0_103_2)">
<path d="M50 0C54.5898 0 59.0169 0.585938 63.2812 1.75781C67.5456 2.92969 71.5169 4.6224 75.1953 6.83594C78.8737 9.04948 82.2428 11.6536 85.3027 14.6484C88.3626 17.6432 90.9831 21.0124 93.1641 24.7559C95.3451 28.4993 97.0215 32.487 98.1934 36.7188C99.3652 40.9505 99.9674 45.3776 100 50C100 54.5898 99.4141 59.0169 98.2422 63.2812C97.0703 67.5456 95.3776 71.5169 93.1641 75.1953C90.9505 78.8737 88.3464 82.2428 85.3516 85.3027C82.3568 88.3626 78.9876 90.9831 75.2441 93.1641C71.5007 95.3451 67.513 97.0215 63.2812 98.1934C59.0495 99.3652 54.6224 99.9674 50 100C45.4102 100 40.9831 99.4141 36.7188 98.2422C32.4544 97.0703 28.4831 95.3776 24.8047 93.1641C21.1263 90.9505 17.7572 88.3464 14.6973 85.3516C11.6374 82.3568 9.01693 78.9876 6.83594 75.2441C4.65495 71.5007 2.97852 67.513 1.80664 63.2812C0.634766 59.0495 0.0325521 54.6224 0 50C0 45.4102 0.585938 40.9831 1.75781 36.7188C2.92969 32.4544 4.6224 28.4831 6.83594 24.8047C9.04948 21.1263 11.6536 17.7572 14.6484 14.6973C17.6432 11.6374 21.0124 9.01693 24.7559 6.83594C28.4993 4.65495 32.487 2.97852 36.7188 1.80664C40.9505 0.634766 45.3776 0.0325521 50 0ZM56.25 75V62.5H43.75V75H56.25ZM56.25 56.25V25H43.75V56.25H56.25Z" fill="#00A75A"/>
</g>
<defs>
<clipPath id="clip0_103_2">
<rect width="100" height="100" fill="white"/>
</clipPath>
</defs>
</svg>
